<svg width="512" height="512" viewBox="0 0 512 512" xmlns="http://www.w3.org/2000/svg">
  <rect width="512" height="512" rx="96" fill="#08080c"/>
  <g transform="translate(256, 256) scale(1.8)" fill="#e8e4e0">
    <path d="M0,-86 A86,86 0 0,1 74.5,43 A9,9 0 0,1 66.5,49 A72,72 0 0,0 0,-72 A7,7 0 0,1 0,-86 Z"/>
    <path d="M0,-86 A86,86 0 0,1 74.5,43 A9,9 0 0,1 66.5,49 A72,72 0 0,0 0,-72 A7,7 0 0,1 0,-86 Z" transform="rotate(60)"/>
    <path d="M0,-86 A86,86 0 0,1 74.5,43 A9,9 0 0,1 66.5,49 A72,72 0 0,0 0,-72 A7,7 0 0,1 0,-86 Z" transform="rotate(120)"/>
    <path d="M0,-86 A86,86 0 0,1 74.5,43 A9,9 0 0,1 66.5,49 A72,72 0 0,0 0,-72 A7,7 0 0,1 0,-86 Z" transform="rotate(180)"/>
    <path d="M0,-86 A86,86 0 0,1 74.5,43 A9,9 0 0,1 66.5,49 A72,72 0 0,0 0,-72 A7,7 0 0,1 0,-86 Z" transform="rotate(240)"/>
    <path d="M0,-86 A86,86 0 0,1 74.5,43 A9,9 0 0,1 66.5,49 A72,72 0 0,0 0,-72 A7,7 0 0,1 0,-86 Z" transform="rotate(300)"/>
  </g>
</svg>